<svg width="16" height="16" viewBox="0 0 16 16" fill="none" xmlns="http://www.w3.org/2000/svg">
<path d="M3.83398 10.74V5.26004C4.69398 5.04004 5.33398 4.26671 5.33398 3.33337C5.33398 2.22671 4.44065 1.33337 3.33398 1.33337C2.22732 1.33337 1.33398 2.22671 1.33398 3.33337C1.33398 4.26671 1.97398 5.04004 2.83398 5.26004V10.7334C1.97398 10.96 1.33398 11.7334 1.33398 12.6667C1.33398 13.7734 2.22732 14.6667 3.33398 14.6667C4.44065 14.6667 5.33398 13.7734 5.33398 12.6667C5.33398 11.7334 4.69398 10.96 3.83398 10.74Z" fill="white"/>
<path d="M13.1667 10.7401V4.33339C13.1667 3.32006 12.3467 2.50006 11.3333 2.50006H9.38L10.32 1.72006C10.5333 1.54006 10.56 1.22672 10.3867 1.01339C10.2067 0.800056 9.89333 0.773389 9.68 0.946723L7.68 2.61339C7.56667 2.70672 7.5 2.84672 7.5 3.00006C7.5 3.15339 7.56667 3.28672 7.68 3.38672L9.68 5.05339C9.77333 5.13339 9.88667 5.16672 10 5.16672C10.14 5.16672 10.2867 5.10672 10.3867 4.98672C10.5667 4.77339 10.5333 4.46006 10.32 4.28006L9.38 3.50006H11.3333C11.7933 3.50006 12.1667 3.87339 12.1667 4.33339V10.7401C11.3067 10.9601 10.6667 11.7334 10.6667 12.6667C10.6667 13.7734 11.56 14.6667 12.6667 14.6667C13.7733 14.6667 14.6667 13.7734 14.6667 12.6667C14.6667 11.7334 14.0267 10.9601 13.1667 10.7401Z" fill="white"/>
</svg>
