<svg width="74" height="27" viewBox="0 0 74 27" fill="none" xmlns="http://www.w3.org/2000/svg">
<mask id="mask0_0_63" style="mask-type:luminance" maskUnits="userSpaceOnUse" x="0" y="0" width="74" height="27">
<path d="M0 0H73.8869V26.713H0V0Z" fill="white"/>
</mask>
<g mask="url(#mask0_0_63)">
<path d="M73.371 10.6957C72.834 9.49242 71.9549 8.47367 70.8433 7.76625C69.7316 7.05883 68.4365 6.694 67.119 6.71716C65.7798 6.717 64.4697 7.10813 63.3498 7.84249C62.23 8.57685 61.349 9.62243 60.8154 10.8507C60.4537 11.6774 60.2987 12.5558 60.2987 13.4342C60.2845 14.3381 60.453 15.2356 60.794 16.0729C61.135 16.9102 61.6415 17.67 62.2832 18.3068C62.9248 18.9437 63.6885 19.4444 64.5283 19.7791C65.3681 20.1138 66.2669 20.2755 67.1707 20.2545C68.0848 20.2511 68.9892 20.0667 69.8316 19.712C70.6741 19.3572 71.438 18.8392 72.0792 18.1877C72.7509 17.516 73.2676 16.6376 73.6293 15.7593H70.0642C69.7936 16.1705 69.442 16.5221 69.0308 16.7927C68.522 17.0705 67.9566 17.229 67.3775 17.2562C66.7984 17.2834 66.2207 17.1785 65.6881 16.9496C65.1555 16.7206 64.6819 16.3735 64.3032 15.9346C63.9245 15.4956 63.6506 14.9763 63.5022 14.4159H73.836L73.9393 13.9508C74.0401 12.8397 73.8625 11.721 73.4226 10.6957H73.371ZM63.3988 12.0391C63.7284 11.3377 64.2508 10.7446 64.905 10.3292C65.5593 9.91376 66.3182 9.69315 67.0932 9.69315C67.8681 9.69315 68.6271 9.91376 69.2813 10.3292C69.9355 10.7446 70.4579 11.3377 70.7875 12.0391H63.3988Z" fill="white"/>
<path d="M17.8257 26.7133V19.0663C19.0986 19.9082 20.6156 20.3025 22.1373 20.1869C23.659 20.0713 25.099 19.4524 26.2301 18.4279C27.3612 17.4034 28.1191 16.0315 28.3843 14.5286C28.6495 13.0257 28.4068 11.4773 27.6946 10.1275C26.9679 8.78319 25.8138 7.71942 24.4149 7.10442C23.0159 6.48941 21.4519 6.35825 19.97 6.73168C18.4882 7.1051 17.1731 7.9618 16.2326 9.16634C15.2922 10.3709 14.7801 11.8545 14.7773 13.3827V26.765H17.8257V26.7133ZM21.6493 9.55916C22.2165 9.56431 22.7757 9.69393 23.2873 9.93885C23.7989 10.1838 24.2506 10.538 24.6103 10.9766C24.97 11.4152 25.2291 11.9274 25.3692 12.4771C25.5093 13.0267 25.527 13.6005 25.4211 14.1577C25.2699 14.9053 24.8986 15.5906 24.3548 16.1255C23.811 16.6604 23.1197 17.0205 22.3697 17.1594C21.6197 17.2982 20.8453 17.2096 20.146 16.9049C19.4468 16.6002 18.8547 16.0933 18.4458 15.4494C18.0728 14.8691 17.8639 14.1986 17.841 13.5092C17.8182 12.8197 17.9823 12.1369 18.3159 11.5331C18.6496 10.9293 19.1404 10.4271 19.7363 10.0795C20.3323 9.73203 21.0111 9.55222 21.7009 9.55916H21.6493ZM10.4887 13.0727C10.4887 14.4677 10.127 15.5011 9.45534 16.2762C8.9824 16.7358 8.39278 17.0574 7.75026 17.2062C7.16896 17.3065 6.57479 17.3065 5.9935 17.2062C5.37347 17.0512 4.80511 16.6895 4.34009 16.2762C3.61672 15.4495 3.25504 14.4161 3.25504 13.0727V6.51068H-0.00012207V13.2793C-0.00012207 15.5011 0.671577 17.2579 1.96331 18.4463C3.20337 19.583 4.80511 20.1513 6.82021 20.2547H6.92355C8.99032 20.1513 10.5404 19.583 11.7805 18.4463C13.0722 17.2579 13.7439 15.5011 13.7439 13.2793V6.56235H10.4887V13.0727Z" fill="white"/>
<path d="M37.7176 10.7473C37.3035 10.2744 36.7958 9.89247 36.2266 9.62568C35.6575 9.35888 35.0392 9.21299 34.4108 9.19724C33.584 9.30057 33.119 9.45558 32.8607 9.81727C32.753 9.93399 32.6737 10.0739 32.6289 10.2263C32.5841 10.3786 32.575 10.5392 32.6023 10.6956C32.7573 11.419 33.6357 11.574 34.1524 11.729L36.9942 12.4524C37.903 12.6523 38.731 13.1203 39.371 13.7958C39.9582 14.4458 40.2727 15.2969 40.2494 16.1726C40.2737 16.7581 40.1489 17.3402 39.8869 17.8643C39.6248 18.3885 39.234 18.8375 38.751 19.1694C37.7176 19.8928 36.4258 20.2028 34.7208 20.2028C33.6874 20.2028 32.654 20.0478 31.6206 19.6861C30.8972 19.3761 30.2255 18.911 29.6572 18.3427L29.4505 18.136L29.1405 17.7227L31.4139 16.1209C32.1761 16.9028 33.1751 17.4113 34.2557 17.5676C35.3925 17.671 36.6325 17.516 36.8392 16.2242C36.8392 15.0875 35.8058 14.8808 35.0308 14.7258C35.0308 14.7258 30.9489 13.9508 29.9672 12.6591C29.4272 12.0253 29.1337 11.2182 29.1405 10.3856C29.1405 9.86894 29.2955 9.35224 29.5022 8.83555C30.0189 8.00885 30.8456 7.33715 31.7756 7.02713C32.654 6.66545 33.584 6.51044 34.5658 6.51044C36.2708 6.51044 38.5443 7.02713 39.991 9.19724L37.7176 10.7473ZM56.1635 0.00012207V7.69883C54.8951 6.8478 53.3793 6.4436 51.8556 6.55009C50.3318 6.65658 48.887 7.26768 47.7493 8.28686C46.6116 9.30604 45.8459 10.6752 45.5731 12.1781C45.3004 13.681 45.536 15.2319 46.243 16.5859C46.9675 17.9265 48.1171 18.9883 49.5109 19.6042C50.9047 20.2202 52.4637 20.3554 53.9427 19.9886C55.4218 19.6218 56.7369 18.7738 57.6814 17.5779C58.6259 16.3821 59.1461 14.9062 59.1603 13.3824V0.00012207H56.1635ZM52.34 17.206C51.7684 17.2084 51.2033 17.0843 50.6853 16.8427C50.1673 16.6011 49.7092 16.2479 49.3438 15.8083C48.9783 15.3688 48.7146 14.8539 48.5716 14.3005C48.4286 13.7471 48.4097 13.1689 48.5164 12.6074C48.6602 11.8561 49.026 11.1651 49.5665 10.6239C50.1071 10.0827 50.7976 9.71602 51.5487 9.57136C52.2999 9.42669 53.0772 9.51066 53.7801 9.81241C54.483 10.1142 55.0793 10.6198 55.4918 11.264C55.8736 11.8377 56.0933 12.504 56.1276 13.1923C56.1619 13.8806 56.0095 14.5654 55.6866 15.1742C55.3637 15.7831 54.8822 16.2933 54.2931 16.6509C53.7039 17.0086 53.0291 17.2004 52.34 17.206ZM42.7295 1.08517C42.443 1.08107 42.1585 1.13375 41.8924 1.24017C41.6264 1.34658 41.3841 1.50464 41.1794 1.70521C40.9592 1.9194 40.7859 2.17692 40.6703 2.4615C40.5546 2.74609 40.4993 3.05156 40.5077 3.35862C40.505 3.93627 40.7274 4.49225 41.1277 4.90869C41.5624 5.33472 42.1467 5.57334 42.7553 5.57334C43.3639 5.57334 43.9483 5.33472 44.3829 4.90869C44.8022 4.5006 45.0435 3.9436 45.0546 3.35862C45.062 3.05363 45.0066 2.75038 44.8917 2.46776C44.7768 2.18514 44.6049 1.92922 44.3868 1.71593C44.1686 1.50264 43.9089 1.33657 43.6238 1.22805C43.3387 1.11953 43.0342 1.07089 42.7295 1.08517ZM41.3344 7.38881V19.5827H44.3312V7.38881H41.2828H41.3344Z" fill="white"/>
</g>
</svg>
